<svg xmlns="http://www.w3.org/2000/svg" viewBox="0 0 1400 1000" font-family="Segoe UI, Helvetica, Arial, sans-serif">
  <defs>
    <style>
      .module-box { rx: 8; ry: 8; stroke-width: 2; }
      .module-label { font-weight: 700; font-size: 13px; fill: white; }
      .module-count { font-weight: 400; font-size: 10px; fill: rgba(255,255,255,0.75); }
      .table-text { font-size: 8.5px; fill: rgba(255,255,255,0.9); }
      .link { stroke-width: 1.2; fill: none; opacity: 0.35; }
      .link:hover { opacity: 0.8; }
      .title { font-size: 28px; font-weight: 700; fill: #e4e4e4; }
      .subtitle { font-size: 13px; fill: #a0a0a0; }
      .group-label { font-size: 11px; font-weight: 600; fill: #888; letter-spacing: 1.5px; }
    </style>
  </defs>

  <!-- Background -->
  <rect width="1400" height="1000" fill="#1a1a1a"/>

  <!-- Title -->
  <text x="700" y="42" text-anchor="middle" class="title">Mimisbrunnr</text>
  <text x="700" y="64" text-anchor="middle" class="subtitle">Universal Semantic Reference Model — 166 tables · 17 domains · Multi-tenant SaaS</text>

  <!-- ═══════════════════════════════════════════════════════════════ -->
  <!-- CORE PLATFORM (top center) -->
  <!-- ═══════════════════════════════════════════════════════════════ -->
  <text x="700" y="98" text-anchor="middle" class="group-label">CORE PLATFORM</text>

  <!-- Auth & RBAC -->
  <rect x="430" y="108" width="160" height="105" fill="#4a5568" class="module-box" stroke="#718096"/>
  <text x="510" y="128" text-anchor="middle" class="module-label">Auth &amp; RBAC</text>
  <text x="510" y="143" text-anchor="middle" class="module-count">8 tables</text>
  <text x="445" y="160" class="table-text">tenants</text>
  <text x="445" y="172" class="table-text">users</text>
  <text x="445" y="184" class="table-text">tenant_roles</text>
  <text x="445" y="196" class="table-text">permissions</text>
  <text x="535" y="160" class="table-text">role_permissions</text>
  <text x="535" y="172" class="table-text">user_roles</text>
  <text x="535" y="184" class="table-text">tenant_settings</text>
  <text x="535" y="196" class="table-text">user_mfa</text>

  <!-- Workflow Engine -->
  <rect x="610" y="108" width="160" height="105" fill="#4a5568" class="module-box" stroke="#718096"/>
  <text x="690" y="128" text-anchor="middle" class="module-label">Workflow Engine</text>
  <text x="690" y="143" text-anchor="middle" class="module-count">5 tables</text>
  <text x="625" y="160" class="table-text">workflow_templates</text>
  <text x="625" y="172" class="table-text">workflow_steps</text>
  <text x="625" y="184" class="table-text">workflow_transitions</text>
  <text x="625" y="196" class="table-text">workflow_instances</text>
  <text x="625" y="208" class="table-text">workflow_step_instances</text>

  <!-- Notifications & Infra -->
  <rect x="790" y="108" width="160" height="105" fill="#4a5568" class="module-box" stroke="#718096"/>
  <text x="870" y="128" text-anchor="middle" class="module-label">Infrastructure</text>
  <text x="870" y="143" text-anchor="middle" class="module-count">7 tables</text>
  <text x="805" y="160" class="table-text">notifications</text>
  <text x="805" y="172" class="table-text">notification_preferences</text>
  <text x="805" y="184" class="table-text">attachments</text>
  <text x="805" y="196" class="table-text">audit_log</text>
  <text x="805" y="208" class="table-text">form_templates</text>

  <!-- ═══════════════════════════════════════════════════════════════ -->
  <!-- COMMERCIAL OPERATIONS (left column) -->
  <!-- ═══════════════════════════════════════════════════════════════ -->
  <text x="160" y="248" text-anchor="middle" class="group-label">COMMERCIAL OPERATIONS</text>

  <!-- CRM -->
  <rect x="20" y="258" width="280" height="150" fill="#2b6cb0" class="module-box" stroke="#3b82c6"/>
  <text x="160" y="278" text-anchor="middle" class="module-label">CRM</text>
  <text x="160" y="293" text-anchor="middle" class="module-count">12 tables</text>
  <text x="35" y="312" class="table-text">crm_entities</text>
  <text x="35" y="324" class="table-text">crm_contacts</text>
  <text x="35" y="336" class="table-text">crm_addresses</text>
  <text x="35" y="348" class="table-text">crm_opportunities</text>
  <text x="35" y="360" class="table-text">crm_leads</text>
  <text x="35" y="372" class="table-text">crm_interactions</text>
  <text x="170" y="312" class="table-text">crm_entity_relationships</text>
  <text x="170" y="324" class="table-text">crm_lead_sources</text>
  <text x="170" y="336" class="table-text">crm_campaigns</text>
  <text x="170" y="348" class="table-text">crm_campaign_members</text>
  <text x="170" y="360" class="table-text">crm_territories</text>
  <text x="170" y="372" class="table-text">crm_territory_assignments</text>

  <!-- Sales -->
  <rect x="20" y="420" width="280" height="120" fill="#2a7453" class="module-box" stroke="#34916a"/>
  <text x="160" y="440" text-anchor="middle" class="module-label">Sales &amp; Commissions</text>
  <text x="160" y="455" text-anchor="middle" class="module-count">8 tables</text>
  <text x="35" y="474" class="table-text">sales_quotes</text>
  <text x="35" y="486" class="table-text">sales_quote_lines</text>
  <text x="35" y="498" class="table-text">sales_orders</text>
  <text x="35" y="510" class="table-text">sales_order_lines</text>
  <text x="170" y="474" class="table-text">sales_commissions</text>
  <text x="170" y="486" class="table-text">sales_commission_rules</text>
  <text x="170" y="498" class="table-text">sales_price_lists</text>
  <text x="170" y="510" class="table-text">sales_price_list_items</text>

  <!-- Purchasing -->
  <rect x="20" y="552" width="280" height="110" fill="#6B4F1A" class="module-box" stroke="#8B6F3A"/>
  <text x="160" y="572" text-anchor="middle" class="module-label">Purchasing</text>
  <text x="160" y="587" text-anchor="middle" class="module-count">8 tables</text>
  <text x="35" y="606" class="table-text">finance_purchase_orders</text>
  <text x="35" y="618" class="table-text">finance_po_lines</text>
  <text x="35" y="630" class="table-text">purchasing_suppliers</text>
  <text x="35" y="642" class="table-text">purchasing_receipts</text>
  <text x="170" y="606" class="table-text">purchasing_receipt_lines</text>
  <text x="170" y="618" class="table-text">purchasing_rfqs</text>
  <text x="170" y="630" class="table-text">purchasing_rfis</text>
  <text x="170" y="642" class="table-text">purchasing_rfps</text>

  <!-- Finance -->
  <rect x="20" y="674" width="280" height="145" fill="#7c3aed" class="module-box" stroke="#9f5aed"/>
  <text x="160" y="694" text-anchor="middle" class="module-label">Finance (AR/AP/GL)</text>
  <text x="160" y="709" text-anchor="middle" class="module-count">13 tables</text>
  <text x="35" y="728" class="table-text">finance_accounts</text>
  <text x="35" y="740" class="table-text">finance_gl_entries</text>
  <text x="35" y="752" class="table-text">finance_invoices</text>
  <text x="35" y="764" class="table-text">finance_invoice_lines</text>
  <text x="35" y="776" class="table-text">finance_payments</text>
  <text x="35" y="788" class="table-text">finance_payment_apps</text>
  <text x="35" y="800" class="table-text">finance_bills</text>
  <text x="170" y="728" class="table-text">finance_currencies</text>
  <text x="170" y="740" class="table-text">finance_exchange_rates</text>
  <text x="170" y="752" class="table-text">finance_gain_loss</text>
  <text x="170" y="764" class="table-text">finance_fiscal_periods</text>
  <text x="170" y="776" class="table-text">finance_tax_rates</text>
  <text x="170" y="788" class="table-text">finance_fixed_assets</text>

  <!-- ═══════════════════════════════════════════════════════════════ -->
  <!-- ENGINEERING & PRODUCTION (center column) -->
  <!-- ═══════════════════════════════════════════════════════════════ -->
  <text x="550" y="248" text-anchor="middle" class="group-label">ENGINEERING &amp; PRODUCTION</text>

  <!-- PLM -->
  <rect x="380" y="258" width="340" height="150" fill="#0e7490" class="module-box" stroke="#22a3c0"/>
  <text x="550" y="278" text-anchor="middle" class="module-label">PLM / PDM</text>
  <text x="550" y="293" text-anchor="middle" class="module-count">17 tables</text>
  <text x="395" y="312" class="table-text">plm_parts</text>
  <text x="395" y="324" class="table-text">plm_part_revisions</text>
  <text x="395" y="336" class="table-text">plm_bom_headers</text>
  <text x="395" y="348" class="table-text">plm_bom_lines</text>
  <text x="395" y="360" class="table-text">plm_ebom_headers</text>
  <text x="395" y="372" class="table-text">plm_ebom_lines</text>
  <text x="500" y="312" class="table-text">plm_ecr</text>
  <text x="500" y="324" class="table-text">plm_eco</text>
  <text x="500" y="336" class="table-text">plm_ecn</text>
  <text x="500" y="348" class="table-text">plm_ecr_parts</text>
  <text x="500" y="360" class="table-text">plm_routings</text>
  <text x="500" y="372" class="table-text">plm_routing_operations</text>
  <text x="610" y="312" class="table-text">plm_where_used</text>
  <text x="610" y="324" class="table-text">plm_part_suppliers</text>
  <text x="610" y="336" class="table-text">plm_documents</text>
  <text x="610" y="348" class="table-text">plm_naics_codes</text>
  <text x="610" y="360" class="table-text">product_serial_config</text>

  <!-- Manufacturing -->
  <rect x="380" y="420" width="160" height="120" fill="#dc2626" class="module-box" stroke="#ef4444"/>
  <text x="460" y="440" text-anchor="middle" class="module-label">Manufacturing</text>
  <text x="460" y="455" text-anchor="middle" class="module-count">7 tables</text>
  <text x="395" y="474" class="table-text">mfg_work_orders</text>
  <text x="395" y="486" class="table-text">mfg_work_centers</text>
  <text x="395" y="498" class="table-text">mfg_operations</text>
  <text x="395" y="510" class="table-text">mfg_materials</text>
  <text x="395" y="522" class="table-text">mfg_shop_floor_log</text>

  <!-- Quality -->
  <rect x="560" y="420" width="160" height="120" fill="#d97706" class="module-box" stroke="#f59e0b"/>
  <text x="640" y="440" text-anchor="middle" class="module-label">Quality</text>
  <text x="640" y="455" text-anchor="middle" class="module-count">7 tables</text>
  <text x="575" y="474" class="table-text">quality_ncr</text>
  <text x="575" y="486" class="table-text">quality_8d</text>
  <text x="575" y="498" class="table-text">quality_capa</text>
  <text x="575" y="510" class="table-text">quality_audits</text>
  <text x="575" y="522" class="table-text">quality_inspection_plans</text>

  <!-- MRP -->
  <rect x="380" y="552" width="160" height="90" fill="#b91c1c" class="module-box" stroke="#dc2626"/>
  <text x="460" y="572" text-anchor="middle" class="module-label">MRP</text>
  <text x="460" y="587" text-anchor="middle" class="module-count">3 tables</text>
  <text x="395" y="606" class="table-text">mrp_run_log</text>
  <text x="395" y="618" class="table-text">mrp_planned_orders</text>
  <text x="395" y="630" class="table-text">mrp_demand</text>

  <!-- Service -->
  <rect x="560" y="552" width="160" height="90" fill="#9333ea" class="module-box" stroke="#a855f7"/>
  <text x="640" y="572" text-anchor="middle" class="module-label">Service &amp; Warranty</text>
  <text x="640" y="587" text-anchor="middle" class="module-count">5 tables</text>
  <text x="575" y="606" class="table-text">service_requests</text>
  <text x="575" y="618" class="table-text">service_rma</text>
  <text x="575" y="630" class="table-text">service_warranty</text>

  <!-- ═══════════════════════════════════════════════════════════════ -->
  <!-- OPERATIONS & LOGISTICS (right column) -->
  <!-- ═══════════════════════════════════════════════════════════════ -->
  <text x="1100" y="248" text-anchor="middle" class="group-label">OPERATIONS &amp; LOGISTICS</text>

  <!-- Logistics -->
  <rect x="900" y="258" width="310" height="195" fill="#166534" class="module-box" stroke="#22c55e"/>
  <text x="1055" y="278" text-anchor="middle" class="module-label">Logistics &amp; Warehouse</text>
  <text x="1055" y="293" text-anchor="middle" class="module-count">20 tables</text>
  <text x="915" y="312" class="table-text">logistics_inventory</text>
  <text x="915" y="324" class="table-text">logistics_locations</text>
  <text x="915" y="336" class="table-text">logistics_transactions</text>
  <text x="915" y="348" class="table-text">logistics_shipments</text>
  <text x="915" y="360" class="table-text">logistics_shipment_lines</text>
  <text x="915" y="372" class="table-text">logistics_carriers</text>
  <text x="915" y="384" class="table-text">logistics_warehouses</text>
  <text x="915" y="396" class="table-text">logistics_pick_lists</text>
  <text x="915" y="408" class="table-text">logistics_pick_items</text>
  <text x="915" y="420" class="table-text">logistics_cycle_counts</text>
  <text x="1075" y="312" class="table-text">logistics_cycle_count_lines</text>
  <text x="1075" y="324" class="table-text">logistics_returns</text>
  <text x="1075" y="336" class="table-text">logistics_return_lines</text>
  <text x="1075" y="348" class="table-text">logistics_labels</text>
  <text x="1075" y="360" class="table-text">logistics_landed_costs</text>
  <text x="1075" y="372" class="table-text">logistics_putaway_rules</text>
  <text x="1075" y="384" class="table-text">logistics_bins</text>
  <text x="1075" y="396" class="table-text">logistics_lot_tracking</text>
  <text x="1075" y="408" class="table-text">logistics_serial_numbers</text>
  <text x="1075" y="420" class="table-text">logistics_reorder_rules</text>

  <!-- Scheduling & Fleet -->
  <rect x="900" y="465" width="310" height="105" fill="#0369a1" class="module-box" stroke="#0ea5e9"/>
  <text x="1055" y="485" text-anchor="middle" class="module-label">Scheduling, Fleet &amp; Territory</text>
  <text x="1055" y="500" text-anchor="middle" class="module-count">9 tables</text>
  <text x="915" y="519" class="table-text">scheduling_assignments</text>
  <text x="915" y="531" class="table-text">scheduling_shifts</text>
  <text x="915" y="543" class="table-text">scheduling_calendars</text>
  <text x="915" y="555" class="table-text">scheduling_exceptions</text>
  <text x="1075" y="519" class="table-text">fleet_vehicles</text>
  <text x="1075" y="531" class="table-text">fleet_maintenance</text>
  <text x="1075" y="543" class="table-text">fleet_assignments</text>
  <text x="1075" y="555" class="table-text">territory_zones</text>

  <!-- Asset Registry -->
  <rect x="900" y="582" width="150" height="75" fill="#525252" class="module-box" stroke="#737373"/>
  <text x="975" y="602" text-anchor="middle" class="module-label">Asset Registry</text>
  <text x="975" y="617" text-anchor="middle" class="module-count">2 tables</text>
  <text x="915" y="636" class="table-text">asset_registry</text>
  <text x="915" y="648" class="table-text">asset_ownership_history</text>

  <!-- ═══════════════════════════════════════════════════════════════ -->
  <!-- PEOPLE & PROJECTS (bottom center-right) -->
  <!-- ═══════════════════════════════════════════════════════════════ -->
  <text x="1055" y="688" text-anchor="middle" class="group-label">PEOPLE &amp; PROJECTS</text>

  <!-- HR -->
  <rect x="900" y="698" width="200" height="175" fill="#be185d" class="module-box" stroke="#ec4899"/>
  <text x="1000" y="718" text-anchor="middle" class="module-label">HR &amp; Payroll</text>
  <text x="1000" y="733" text-anchor="middle" class="module-count">17 tables</text>
  <text x="915" y="752" class="table-text">hr_employees</text>
  <text x="915" y="764" class="table-text">hr_departments</text>
  <text x="915" y="776" class="table-text">hr_positions</text>
  <text x="915" y="788" class="table-text">hr_locations</text>
  <text x="915" y="800" class="table-text">hr_time_entries</text>
  <text x="915" y="812" class="table-text">hr_leave_requests</text>
  <text x="915" y="824" class="table-text">hr_payroll_records</text>
  <text x="915" y="836" class="table-text">hr_benefits</text>
  <text x="1010" y="752" class="table-text">hr_reviews</text>
  <text x="1010" y="764" class="table-text">hr_goals</text>
  <text x="1010" y="776" class="table-text">hr_training</text>
  <text x="1010" y="788" class="table-text">hr_certifications</text>
  <text x="1010" y="800" class="table-text">hr_pay_grades</text>
  <text x="1010" y="812" class="table-text">hr_tax_withholdings</text>
  <text x="1010" y="824" class="table-text">hr_deductions</text>

  <!-- Projects -->
  <rect x="1110" y="698" width="200" height="130" fill="#b45309" class="module-box" stroke="#d97706"/>
  <text x="1210" y="718" text-anchor="middle" class="module-label">Project Management</text>
  <text x="1210" y="733" text-anchor="middle" class="module-count">8 tables</text>
  <text x="1125" y="752" class="table-text">pm_projects</text>
  <text x="1125" y="764" class="table-text">pm_tasks</text>
  <text x="1125" y="776" class="table-text">pm_phases</text>
  <text x="1125" y="788" class="table-text">pm_issues</text>
  <text x="1125" y="800" class="table-text">pm_budgets</text>
  <text x="1125" y="812" class="table-text">pm_milestones</text>

  <!-- ═══════════════════════════════════════════════════════════════ -->
  <!-- INTEGRATION FRAMEWORK (bottom center-left) -->
  <!-- ═══════════════════════════════════════════════════════════════ -->
  <text x="550" y="688" text-anchor="middle" class="group-label">PLATFORM SERVICES</text>

  <!-- Integration -->
  <rect x="380" y="698" width="340" height="105" fill="#374151" class="module-box" stroke="#6b7280"/>
  <text x="550" y="718" text-anchor="middle" class="module-label">Mimisbrunnr Integration Framework</text>
  <text x="550" y="733" text-anchor="middle" class="module-count">7 tables</text>
  <text x="395" y="752" class="table-text">integration_connections</text>
  <text x="395" y="764" class="table-text">integration_field_mappings</text>
  <text x="395" y="776" class="table-text">integration_sync_log</text>
  <text x="395" y="788" class="table-text">integration_conflict_log</text>
  <text x="560" y="752" class="table-text">integration_webhooks</text>
  <text x="560" y="764" class="table-text">integration_dead_letters</text>
  <text x="560" y="776" class="table-text">integration_transforms</text>

  <!-- State Engine -->
  <rect x="380" y="815" width="340" height="85" fill="#374151" class="module-box" stroke="#6b7280"/>
  <text x="550" y="835" text-anchor="middle" class="module-label">State Constraint Engine</text>
  <text x="550" y="850" text-anchor="middle" class="module-count">4 tables</text>
  <text x="395" y="869" class="table-text">state_entity_types</text>
  <text x="395" y="881" class="table-text">state_definitions</text>
  <text x="560" y="869" class="table-text">state_transitions</text>
  <text x="560" y="881" class="table-text">state_transition_constraints</text>

  <!-- ═══════════════════════════════════════════════════════════════ -->
  <!-- CROSS-MODULE RELATIONSHIP LINES -->
  <!-- ═══════════════════════════════════════════════════════════════ -->

  <!-- CRM → Sales -->
  <path d="M 160 408 L 160 420" class="link" stroke="#3b82f6"/>
  <!-- CRM → PLM -->
  <path d="M 300 330 Q 340 330 380 330" class="link" stroke="#3b82f6"/>
  <!-- CRM → Logistics -->
  <path d="M 300 370 Q 600 430 900 350" class="link" stroke="#3b82f6"/>
  <!-- CRM → Finance -->
  <path d="M 160 408 Q 160 640 160 674" class="link" stroke="#3b82f6"/>

  <!-- Sales → Manufacturing -->
  <path d="M 300 480 Q 340 480 380 480" class="link" stroke="#22c55e"/>
  <!-- Sales → Logistics -->
  <path d="M 300 470 Q 600 430 900 380" class="link" stroke="#22c55e"/>
  <!-- Sales → Finance -->
  <path d="M 160 540 L 160 674" class="link" stroke="#22c55e"/>

  <!-- PLM → Manufacturing -->
  <path d="M 460 408 L 460 420" class="link" stroke="#22a3c0"/>
  <!-- PLM → Quality -->
  <path d="M 640 408 L 640 420" class="link" stroke="#22a3c0"/>
  <!-- PLM → Logistics -->
  <path d="M 720 350 Q 810 350 900 350" class="link" stroke="#22a3c0"/>
  <!-- PLM → MRP -->
  <path d="M 460 408 Q 460 540 460 552" class="link" stroke="#22a3c0"/>

  <!-- Manufacturing → Quality -->
  <path d="M 540 480 L 560 480" class="link" stroke="#ef4444"/>
  <!-- Manufacturing → HR -->
  <path d="M 540 510 Q 720 640 900 760" class="link" stroke="#ef4444"/>
  <!-- Manufacturing → Logistics -->
  <path d="M 540 490 Q 720 440 900 400" class="link" stroke="#ef4444"/>

  <!-- Purchasing → Logistics -->
  <path d="M 300 610 Q 600 550 900 420" class="link" stroke="#8B6F3A"/>
  <!-- Purchasing → Finance -->
  <path d="M 160 662 L 160 674" class="link" stroke="#8B6F3A"/>

  <!-- ═══════════════════════════════════════════════════════════════ -->
  <!-- FOOTER -->
  <!-- ═══════════════════════════════════════════════════════════════ -->
  <line x1="30" y1="940" x2="1370" y2="940" stroke="#333" stroke-width="1"/>
  <text x="30" y="962" font-size="10" fill="#666">Mimir Labs LLC</text>
  <text x="700" y="962" text-anchor="middle" font-size="10" fill="#666">Mimisbrunnr Semantic Reference Model — System-Agnostic Universal Schema</text>
  <text x="1370" y="962" text-anchor="end" font-size="10" fill="#666">April 2026</text>

  <!-- Legend -->
  <text x="30" y="980" font-size="9" fill="#555">Lines indicate cross-module foreign key relationships. All tables include tenant_id with Row-Level Security. Modules are color-coded by functional domain.</text>
</svg>
